<svg xmlns="http://www.w3.org/2000/svg" width="800" height="450">

    <rect width="800" height="280" fill="skyblue"/>

    <circle cx="650" cy="80" r="50" fill="yellow"/>

    <polygon points="0,280 180,100 350,280" fill="brown"/>
    <polygon points="200,280 420,80 650,280" fill="darkgray"/>
    <polygon points="500,280 680,130 800,280" fill="brown"/>

    <rect y="280" width="800" height="170" fill="tan"/>

    <polygon points="330,450 470,450 430,280 370,280"
             fill="lightgray"/>

    <rect x="100" y="270" width="25" height="100" fill="green"/>
    <rect x="75" y="300" width="30" height="20" fill="green"/>

    <rect x="650" y="260" width="25" height="110" fill="green"/>
    <rect x="675" y="300" width="30" height="20" fill="green"/>

    <rect x="280" y="395" width="30" height="20" fill="gray"/>
    <rect x="500" y="410" width="35" height="20" fill="gray"/>
    <rect x="580" y="380" width="25" height="20" fill="gray"/>

    <text x="400" y="40"
          text-anchor="middle"
          font-family="Times New Roman"
          font-size="26"
          fill="black">
        Phoenix Desert Parks
    </text>

</svg>